# xmcd
#
# Track frame offsets:
#	150
#	12428
#	28473
#	42080
#	56180
#	69580
#	80735
#	93496
#	111159
#	123137
#	136136
#	146439
#	160334
#	176295
#	188747
#	203558
#	217268
#	228924
#
# Disc length: 3252 seconds
#
# Revision: 1
# Processed by: cddbd v1.5.2PL0 Copyright (c) Steve Scherf et al.
# Submitted via: audiograbber 1.83.01
#
DISCID=000cb212
DTITLE=Andy Lee Lang - Goes Country
DYEAR=2010
DGENRE=Country
TTITLE0=Listen to a country song
TTITLE1=Help me make it through the night
TTITLE2=If you love me, let me know
TTITLE3=Devil women
TTITLE4=Sunflower
TTITLE5=Begging to you
TTITLE6=Sugar Moon
TTITLE7=Honky tonk night time man
TTITLE8=Rhinestone cowboy
TTITLE9=Blue eyes crying in the rain
TTITLE10=Walk on by
TTITLE11=Steel man
TTITLE12=Before the next teardrop falls
TTITLE13=Honky tonk man
TTITLE14=Saginaw, Michigan
TTITLE15=Tulsa time
TTITLE16=Let's think about living
TTITLE17=I always get lucky with you
EXTD=
EXTT0=
EXTT1=
EXTT2=
EXTT3=
EXTT4=
EXTT5=
EXTT6=
EXTT7=
EXTT8=
EXTT9=
EXTT10=
EXTT11=
EXTT12=
EXTT13=
EXTT14=
EXTT15=
EXTT16=
EXTT17=
PLAYORDER=
